<svg xmlns="http://www.w3.org/2000/svg" viewBox="0 0 400 400">
  <!-- Background -->
  <rect width="400" height="400" fill="#1a1b26" rx="20"/>
  
  <!-- Stylized 'Z' in Zig's angular style -->
  <path 
    d="M 120 100 
       L 280 100 
       L 180 300 
       L 280 300 
       L 280 260 
       L 220 260 
       L 320 60 
       L 120 60 
       Z" 
    fill="#f7a41d"/>
  
  <!-- FITS data visualization elements -->
  <g transform="translate(200, 200)">
    <!-- Circular data representation -->
    <circle r="120" fill="none" stroke="#444" stroke-width="2"/>
    
    <!-- Data points/stars in a spiral pattern -->
    <g id="dataPoints">
      <circle cx="0" cy="-100" r="3" fill="#f7a41d" opacity="0.8"/>
      <circle cx="71" cy="-71" r="2" fill="#fff" opacity="0.6"/>
      <circle cx="100" cy="0" r="4" fill="#f7a41d" opacity="0.9"/>
      <circle cx="71" cy="71" r="2" fill="#fff" opacity="0.7"/>
      <circle cx="0" cy="100" r="3" fill="#f7a41d" opacity="0.8"/>
      <circle cx="-71" cy="71" r="2" fill="#fff" opacity="0.6"/>
      <circle cx="-100" cy="0" r="4" fill="#f7a41d" opacity="0.9"/>
      <circle cx="-71" cy="-71" r="2" fill="#fff" opacity="0.7"/>
    </g>
    
    <!-- Binary data streams -->
    <g stroke="#f7a41d" stroke-width="2" opacity="0.5">
      <path d="M -90 -90 L -60 -60" />
      <path d="M 90 -90 L 60 -60" />
      <path d="M 90 90 L 60 60" />
      <path d="M -90 90 L -60 60" />
    </g>
  </g>
  
  <!-- Pixel grid overlay -->
  <path 
    d="M 280 280 L 320 280 L 320 320 L 280 320 Z" 
    fill="none" 
    stroke="#f7a41d" 
    stroke-width="2"
    opacity="0.3"/>
  <path 
    d="M 290 290 L 310 290 L 310 310 L 290 310 Z" 
    fill="#f7a41d" 
    opacity="0.2"/>
</svg>